<svg width="364" height="232" viewBox="0 0 364 232" fill="none" xmlns="http://www.w3.org/2000/svg"><path d="M36.5514 122V31.4925H54.8662V122H36.5514ZM76.7561 46.1066C71.2366 46.1066 66.9715 41.7788 66.9715 36.5729C66.9715 31.367 71.2366 27.0392 76.7561 27.0392C82.2756 27.0392 86.5407 31.367 86.5407 36.5729C86.5407 41.7788 82.2756 46.1066 76.7561 46.1066ZM67.5987 122V54.7623H85.9135V122H67.5987ZM123.107 123.38C106.173 123.38 95.7608 110.208 95.7608 88.3811V88.3184C95.7608 66.4285 106.173 53.3824 123.107 53.3824C132.641 53.3824 140.168 58.2747 143.806 66.4285H144.182V31.4925H162.497V122H144.182V110.522H143.806C140.231 118.488 132.829 123.38 123.107 123.38ZM129.254 108.201C138.161 108.201 144.245 100.549 144.245 88.3811V88.3184C144.245 76.2131 138.098 68.561 129.254 68.561C120.16 68.561 114.389 76.0249 114.389 88.3184V88.3811C114.389 100.612 120.097 108.201 129.254 108.201ZM205.587 123.38C185.139 123.38 172.281 110.271 172.281 88.3811V88.2557C172.281 66.6167 185.453 53.3824 205.524 53.3824C225.658 53.3824 238.892 66.4912 238.892 88.2557V88.3811C238.892 110.334 225.908 123.38 205.587 123.38ZM205.649 109.017C214.556 109.017 220.264 101.49 220.264 88.3811V88.2557C220.264 75.2723 214.43 67.7457 205.524 67.7457C196.68 67.7457 190.91 75.2723 190.91 88.2557V88.3811C190.91 101.553 196.617 109.017 205.649 109.017ZM253.255 122V68.561H244.098V54.7623H253.255V49.3682C253.255 36.1966 259.527 30.1126 275.396 30.1126C278.783 30.1126 282.484 30.4262 284.616 30.8653V42.9706C283.362 42.7197 281.605 42.6569 279.912 42.6569C273.828 42.6569 271.131 45.2285 271.131 50.0581V54.7623H284.491V68.561H271.57V122H253.255ZM299.042 122V68.561H289.885V54.7623H299.042V49.3682C299.042 36.1966 305.314 30.1126 321.183 30.1126C324.57 30.1126 328.27 30.4262 330.403 30.8653V42.9706C329.149 42.7197 327.392 42.6569 325.699 42.6569C319.615 42.6569 316.918 45.2285 316.918 50.0581V54.7623H330.278V68.561H317.357V122H299.042Z" class="s" /><path d="M70.5 169L17.9998 201.394C12.8542 204.569 15.1042 212.5 21.1504 212.5H84.5" class="m" stroke-width="10" stroke-linecap="round" /> <path d="M230.19 187.433C227.217 187.433 225.255 185.355 225.255 182.21V158.458C225.255 155.313 227.217 153.206 230.19 153.206C233.191 153.206 235.154 155.313 235.154 158.458V182.21C235.154 185.355 233.191 187.433 230.19 187.433ZM230.19 217.216C213.047 217.216 199.166 203.306 199.166 186.192C199.166 177.852 202.542 170.233 207.506 165.125C211.893 160.478 218.79 165.904 214.144 171.128C210.45 175.024 208.17 180.305 208.17 186.192C208.17 198.371 218.011 208.212 230.19 208.212C242.369 208.212 252.21 198.371 252.21 186.192C252.21 180.334 249.959 175.053 246.265 171.128C241.589 165.933 248.545 160.45 252.902 165.125C257.866 170.262 261.243 177.765 261.243 186.192C261.243 203.306 247.332 217.216 230.19 217.216Z" class="s" /> <path d="M311.505 165.992C311.505 166.713 311.418 167.348 311.245 167.954C312.717 167.839 314.217 167.781 315.776 167.752C316.064 167.175 316.266 166.627 316.266 165.992C316.266 163.424 312.919 161.663 312.919 157.305C312.919 155.227 313.582 153.467 315.025 151.62C316.959 149.167 320.624 151.793 318.691 154.362C317.767 155.631 317.45 156.209 317.45 157.536C317.45 159.701 320.884 161.807 320.884 165.992C320.884 166.656 320.797 167.262 320.653 167.839C322.125 167.897 323.539 168.012 324.924 168.185C325.328 167.464 325.646 166.771 325.646 165.992C325.646 163.424 322.298 161.663 322.298 157.305C322.298 155.227 322.962 153.467 324.405 151.62C326.338 149.167 330.003 151.793 328.07 154.362C327.146 155.631 326.829 156.209 326.829 157.536C326.829 159.701 330.263 161.807 330.263 165.992C330.263 167.118 330.032 168.07 329.657 168.936C338.892 170.84 344.693 174.91 345.328 180.393C352.023 180.739 356.092 184.606 356.092 190.696C356.092 197.131 351.648 201.056 344.318 201.056H342.615C338.459 210.003 329.83 215.63 318.402 215.63H315.343C298.979 215.63 288.359 204.087 288.359 187.781V181.403C288.359 175.054 295.055 170.408 305.906 168.589C306.454 167.724 306.887 166.916 306.887 165.992C306.887 163.424 303.539 161.663 303.539 157.305C303.539 155.227 304.203 153.467 305.646 151.62C307.58 149.167 311.245 151.793 309.311 154.362C308.388 155.631 308.07 156.209 308.07 157.536C308.07 159.701 311.505 161.807 311.505 165.992ZM316.872 187.55C328.532 187.55 337.853 184.635 337.853 181.403C337.853 179.21 333.553 177.161 327.118 176.093C327.32 176.555 327.608 177.016 328.07 177.651C329.975 180.191 326.309 182.817 324.405 180.364C323.135 178.777 322.471 177.247 322.327 175.487C320.797 175.371 319.181 175.285 317.507 175.285C317.652 176.093 317.998 176.67 318.691 177.651C320.595 180.191 316.93 182.817 315.025 180.364C313.756 178.748 313.063 177.19 312.947 175.4C311.303 175.487 309.744 175.631 308.272 175.833C308.445 176.41 308.792 176.901 309.311 177.651C311.216 180.191 307.551 182.817 305.646 180.364C304.665 179.152 304.059 177.94 303.741 176.67C298.951 177.796 295.892 179.556 295.892 181.403C295.892 184.635 305.213 187.55 316.872 187.55ZM345.386 187.781C345.386 189.945 345.212 191.994 344.837 193.986C347.579 193.841 349.022 192.658 349.022 190.696C349.022 188.878 347.781 187.752 345.386 187.492V187.781ZM316.872 195.082C308.272 195.082 301.115 193.726 296.094 191.302C297.392 201.489 304.376 208.098 315.343 208.098H318.402C329.34 208.098 336.353 201.46 337.651 191.302C332.659 193.726 325.473 195.082 316.872 195.082Z" class="s" /><path opacity="0.4" d="M112.609 195.51C109.585 195.51 107.569 193.527 107.569 190.637C107.569 187.714 109.585 185.765 112.609 185.765H150.581L157.873 186.168L150.481 179.313L142.953 171.752C142.046 170.879 141.408 169.736 141.408 168.257C141.408 165.636 143.357 163.654 146.213 163.654C147.389 163.654 148.599 164.158 149.641 165.2L171.516 187.042C172.424 187.949 172.995 189.327 172.995 190.637C172.995 191.948 172.424 193.326 171.516 194.233L149.607 216.075C148.599 217.083 147.389 217.587 146.213 217.587C143.357 217.587 141.408 215.605 141.408 212.984C141.408 211.539 142.046 210.363 142.953 209.489L150.481 201.962L157.873 195.107L150.581 195.51H112.609Z" class="s" /><style>.m{stroke:#0E1114}.s{fill:#0E1114}@media (prefers-color-scheme:dark){.m{stroke:#E6EAF0}.s{fill:#E6EAF0}}</style></svg>