<svg width="364" height="85" viewBox="0 0 364 85" fill="none" xmlns="http://www.w3.org/2000/svg">
    <path class="mac" d="M70.5 22L17.9998 54.3938C12.8542 57.5687 15.1042 65.5 21.1504 65.5H84.5"
        stroke-width="10" stroke-linecap="round" />
    <path
        class="symbol"
        d="M230.19 40.4332C227.217 40.4332 225.255 38.3554 225.255 35.2097V11.4583C225.255 8.31259 227.217 6.20585 230.19 6.20585C233.191 6.20585 235.154 8.31259 235.154 11.4583V35.2097C235.154 38.3554 233.191 40.4332 230.19 40.4332ZM230.19 70.2163C213.047 70.2163 199.166 56.306 199.166 39.1923C199.166 30.8519 202.542 23.233 207.506 18.1248C211.893 13.4784 218.79 18.904 214.144 24.1276C210.45 28.0236 208.17 33.3049 208.17 39.1923C208.17 51.371 218.011 61.2121 230.19 61.2121C242.369 61.2121 252.21 51.371 252.21 39.1923C252.21 33.3338 249.959 28.0525 246.265 24.1276C241.589 18.9329 248.545 13.4496 252.902 18.1248C257.866 23.2618 261.243 30.7653 261.243 39.1923C261.243 56.306 247.332 70.2163 230.19 70.2163Z" />
    <path
        class="symbol"
        d="M311.505 18.992C311.505 19.7135 311.418 20.3484 311.245 20.9545C312.717 20.839 314.217 20.7813 315.776 20.7524C316.064 20.1752 316.266 19.6269 316.266 18.992C316.266 16.4235 312.919 14.6631 312.919 10.3053C312.919 8.2274 313.582 6.46697 315.025 4.61996C316.959 2.1669 320.624 4.79312 318.691 7.36162C317.767 8.63144 317.45 9.20863 317.45 10.5362C317.45 12.7006 320.884 14.8074 320.884 18.992C320.884 19.6558 320.797 20.2618 320.653 20.839C322.125 20.8967 323.539 21.0122 324.924 21.1853C325.328 20.4638 325.646 19.7712 325.646 18.992C325.646 16.4235 322.298 14.6631 322.298 10.3053C322.298 8.2274 322.962 6.46697 324.405 4.61996C326.338 2.1669 330.003 4.79312 328.07 7.36162C327.146 8.63144 326.829 9.20863 326.829 10.5362C326.829 12.7006 330.263 14.8074 330.263 18.992C330.263 20.1175 330.032 21.0699 329.657 21.9357C338.892 23.8404 344.693 27.9096 345.328 33.3929C352.023 33.7392 356.092 37.6064 356.092 43.6958C356.092 50.1314 351.648 54.0563 344.318 54.0563H342.615C338.459 63.0028 329.83 68.6304 318.402 68.6304H315.343C298.979 68.6304 288.359 57.0866 288.359 40.7809V34.403C288.359 28.0539 295.055 23.4075 305.906 21.5894C306.454 20.7236 306.887 19.9155 306.887 18.992C306.887 16.4235 303.539 14.6631 303.539 10.3053C303.539 8.2274 304.203 6.46697 305.646 4.61996C307.58 2.1669 311.245 4.79312 309.311 7.36162C308.388 8.63144 308.07 9.20863 308.07 10.5362C308.07 12.7006 311.505 14.8074 311.505 18.992ZM316.872 40.5501C328.532 40.5501 337.853 37.6353 337.853 34.403C337.853 32.2097 333.553 30.1606 327.118 29.0928C327.32 29.5546 327.608 30.0163 328.07 30.6513C329.975 33.1909 326.309 35.8171 324.405 33.364C323.135 31.7768 322.471 30.2472 322.327 28.4868C320.797 28.3714 319.181 28.2848 317.507 28.2848C317.652 29.0928 317.998 29.67 318.691 30.6513C320.595 33.1909 316.93 35.8171 315.025 33.364C313.756 31.7479 313.063 30.1895 312.947 28.4002C311.303 28.4868 309.744 28.6311 308.272 28.8331C308.445 29.4103 308.792 29.9009 309.311 30.6513C311.216 33.1909 307.551 35.8171 305.646 33.364C304.665 32.1519 304.059 30.9398 303.741 29.67C298.951 30.7956 295.892 32.556 295.892 34.403C295.892 37.6353 305.213 40.5501 316.872 40.5501ZM345.386 40.7809C345.386 42.9454 345.212 44.9944 344.837 46.9857C347.579 46.8414 349.022 45.6582 349.022 43.6958C349.022 41.8776 347.781 40.7521 345.386 40.4924V40.7809ZM316.872 48.0824C308.272 48.0824 301.115 46.726 296.094 44.3018C297.392 54.4892 304.376 61.0981 315.343 61.0981H318.402C329.34 61.0981 336.353 54.4604 337.651 44.3018C332.659 46.726 325.473 48.0824 316.872 48.0824Z" />
    <path
        class="symbol"
        opacity="0.5"
        d="M112.609 48.5099C109.585 48.5099 107.569 46.5273 107.569 43.6374C107.569 40.7139 109.585 38.7649 112.609 38.7649H150.581L157.873 39.1682L150.481 32.313L142.953 24.7522C142.046 23.8785 141.408 22.736 141.408 21.2575C141.408 18.6364 143.357 16.6538 146.213 16.6538C147.389 16.6538 148.599 17.1578 149.641 18.1995L171.516 40.0418C172.424 40.9491 172.995 42.3269 172.995 43.6374C172.995 44.948 172.424 46.3257 171.516 47.233L149.607 69.0753C148.599 70.0834 147.389 70.5875 146.213 70.5875C143.357 70.5875 141.408 68.6049 141.408 65.9838C141.408 64.5388 142.046 63.3627 142.953 62.489L150.481 54.9618L157.873 48.1067L150.581 48.5099H112.609Z" />

    <style>
        .mac {
        stroke: black;
        }
        .symbol {
        fill: black;
        }

        @media (prefers-color-scheme: dark) {
        .mac {
        stroke: white;
        }
        .symbol {
        fill: white;
        }
        }
</style>
</svg>