<svg fill="none" height="141" viewBox="0 0 215 141" width="215" xmlns="http://www.w3.org/2000/svg" xmlns:xlink="http://www.w3.org/1999/xlink"><clipPath id="a"><path d="m0 0h215v141h-215z"/></clipPath><g clip-path="url(#a)"><path d="m25.6891 76.7813c-2.8517 0-4.8831-1.8361-4.8831-5.1175v-47.6987c0-3.2814 2.0314-5.1175 4.8831-5.1175 2.8518 0 4.8441 1.8361 4.8441 5.1175v47.6987c0 3.2814-1.9923 5.1175-4.8441 5.1175zm18.2044-48.0111c-3.008 0-5.391-2.344-5.391-5.2738 0-2.969 2.383-5.2739 5.391-5.2739 3.0471 0 5.4301 2.3049 5.4301 5.2739 0 2.9298-2.383 5.2738-5.4301 5.2738zm0 48.0111c-2.969 0-4.8441-1.9533-4.8441-5.1175v-32.7758c0-3.1252 1.8751-5.1175 4.8441-5.1175s4.8832 1.9923 4.8832 5.1566v32.7367c0 3.1642-1.9142 5.1175-4.8832 5.1175zm28.5176-.1172c-10.4304 0-17.1887-8.2428-17.1887-21.4077 0-13.0869 6.7583-21.3687 17.1887-21.3687 5.9379 0 10.6258 3.0861 12.8134 7.6568h.2344v-17.5794c0-3.2814 1.9923-5.1175 4.8441-5.1175 2.8517 0 4.8831 1.8361 4.8831 5.1175v47.9331c0 3.1252-1.9923 4.8831-4.805 4.8831s-4.9222-1.7189-4.9222-4.8831v-3.2425h-.1953c-1.9924 4.766-6.4458 8.0084-12.8525 8.0084zm2.9299-7.9693c6.1332 0 10.157-5.1957 10.157-13.3994 0-8.1255-4.0238-13.3993-10.157-13.3993-6.2504 0-10.157 5.1956-10.157 13.3993 0 8.2428 3.8675 13.3994 10.157 13.3994zm46.331 8.1256c-12.149 0-20.04-8.0865-20.04-21.525 0-13.3603 7.969-21.564 20.04-21.564 12.072 0 20.041 8.1647 20.041 21.564 0 13.4385-7.891 21.525-20.041 21.525zm0-7.6959c6.173 0 10.157-5.0003 10.157-13.8291 0-8.7896-3.984-13.8291-10.157-13.8291-6.133 0-10.157 5.0395-10.157 13.8291 0 8.8288 3.985 13.8291 10.157 13.8291zm33.87 7.6568c-2.93 0-4.883-1.797-4.883-5.0785v-29.6114h-2.579c-2.187 0-3.75-1.3282-3.75-3.7112 0-2.2658 1.563-3.6721 3.75-3.6721h2.579v-3.6722c0-8.0865 3.945-11.7977 11.407-11.8367 5.156 0 7.461 1.6407 7.461 4.0628 0 1.4844-.703 2.3829-2.148 2.8127-.625.1562-1.29.2343-2.149.2734-3.555.0781-5 1.6407-5 5.1176v3.2424h5.234c2.149 0 3.712 1.4063 3.712 3.6721 0 2.383-1.563 3.7112-3.712 3.7112h-5.078v29.6114c0 3.2815-1.953 5.0785-4.844 5.0785zm26.955 0c-2.93 0-4.883-1.797-4.883-5.0785v-29.6114h-2.579c-2.187 0-3.75-1.3282-3.75-3.7112 0-2.2658 1.563-3.6721 3.75-3.6721h2.579v-3.6722c0-8.0865 3.945-11.7977 11.407-11.8367 5.156 0 7.461 1.6407 7.461 4.0628 0 1.4844-.703 2.3829-2.148 2.8127-.625.1562-1.29.2343-2.149.2734-3.555.0781-5 1.6407-5 5.1176v3.2424h5.234c2.149 0 3.712 1.4063 3.712 3.6721 0 2.383-1.563 3.7112-3.712 3.7112h-5.078v29.6114c0 3.2815-1.953 5.0785-4.844 5.0785z" class="s"/><path d="m41.6703 103.503-31.0312 19.147c-3.04139 1.876-1.7115 6.564 1.8622 6.564h37.444" class="m" stroke-linecap="round" stroke-width="5.91069"/><g class="s"><path d="m136.058 113.707c-1.757 0-2.917-1.228-2.917-3.087v-14.039c0-1.8593 1.16-3.1046 2.917-3.1046 1.774 0 2.934 1.2453 2.934 3.1046v14.039c0 1.859-1.16 3.087-2.934 3.087zm0 17.604c-10.132 0-18.337-8.222-18.337-18.337 0-4.93 1.996-9.433 4.93-12.453 2.592-2.746 6.669.461 3.923 3.548-2.183 2.303-3.531 5.425-3.531 8.905 0 7.198 5.817 13.015 13.015 13.015 7.199 0 13.015-5.817 13.015-13.015 0-3.463-1.33-6.585-3.514-8.905-2.763-3.07 1.348-6.311 3.924-3.548 2.934 3.037 4.93 7.472 4.93 12.453 0 10.115-8.222 18.337-18.355 18.337z"/><path d="m184.121 101.034c0 .426-.052.802-.154 1.16.87-.068 1.757-.102 2.678-.12.171-.341.29-.665.29-1.04 0-1.5182-1.979-2.5588-1.979-5.1345 0-1.2282.393-2.2687 1.246-3.3604 1.143-1.45 3.309.1023 2.166 1.6205-.546.7505-.733 1.0917-.733 1.8764 0 1.2793 2.029 2.5245 2.029 4.998 0 .392-.051.75-.136 1.092.87.034 1.706.102 2.525.204.238-.426.426-.836.426-1.296 0-1.5182-1.979-2.5588-1.979-5.1345 0-1.2282.393-2.2687 1.246-3.3604 1.142-1.45 3.309.1023 2.166 1.6205-.546.7505-.734 1.0917-.734 1.8764 0 1.2793 2.03 2.5245 2.03 4.998 0 .665-.136 1.228-.358 1.74 5.459 1.126 8.887 3.531 9.263 6.772 3.957.205 6.362 2.49 6.362 6.09 0 3.803-2.627 6.123-6.96 6.123h-1.006c-2.456 5.288-7.557 8.615-14.312 8.615h-1.808c-9.672 0-15.949-6.824-15.949-16.461v-3.77c0-3.753 3.958-6.499 10.371-7.574.324-.512.58-.989.58-1.535 0-1.5182-1.978-2.5588-1.978-5.1345 0-1.2282.392-2.2687 1.245-3.3604 1.143-1.45 3.309.1023 2.166 1.6205-.546.7505-.733 1.0917-.733 1.8764 0 1.2793 2.03 2.5245 2.03 4.998zm3.172 12.742c6.892 0 12.402-1.723 12.402-3.633 0-1.297-2.542-2.508-6.346-3.139.119.273.29.546.563.921 1.126 1.501-1.041 3.054-2.166 1.604-.751-.938-1.143-1.842-1.229-2.883-.904-.068-1.859-.119-2.848-.119.085.477.29.818.699 1.398 1.126 1.501-1.041 3.054-2.166 1.604-.751-.955-1.16-1.877-1.229-2.934-.972.051-1.893.136-2.763.256.102.341.307.631.614 1.074 1.126 1.501-1.04 3.054-2.166 1.604-.58-.717-.938-1.433-1.126-2.184-2.832.666-4.64 1.706-4.64 2.798 0 1.91 5.51 3.633 12.401 3.633zm16.854.137c0 1.279-.103 2.49-.324 3.667 1.62-.085 2.473-.785 2.473-1.944 0-1.075-.734-1.74-2.149-1.894zm-16.854 4.315c-5.083 0-9.313-.801-12.281-2.234.767 6.021 4.895 9.927 11.377 9.927h1.808c6.465 0 10.611-3.923 11.378-9.927-2.951 1.433-7.198 2.234-12.282 2.234z"/><path d="m66.56 119.752c-1.7876 0-2.9793-1.171-2.9793-2.879 0-1.728 1.1917-2.88 2.9793-2.88h22.4441l4.31.238-4.3696-4.052-4.4491-4.469c-.5363-.516-.9137-1.192-.9137-2.066 0-1.549 1.152-2.721 2.8403-2.721.6952 0 1.4102.298 2.0259.914l12.9301 12.91c.536.537.874 1.351.874 2.126 0 .774-.338 1.588-.874 2.125l-12.9499 12.91c-.5959.596-1.3109.894-2.0061.894-1.6883 0-2.8403-1.172-2.8403-2.721 0-.854.3774-1.549.9137-2.066l4.4491-4.449 4.3696-4.052-4.31.238z" opacity=".5"/></g></g><style>.m{stroke:#0E1114}.s{fill:#0E1114}@media (prefers-color-scheme:dark){.m{stroke:#E6EAF0}.s{fill:#E6EAF0}}</style></svg>